<svg id="svg" version="1.1" xmlns="http://www.w3.org/2000/svg" xmlns:xlink="http://www.w3.org/1999/xlink" width="400" height="325.9259259259259" viewBox="0, 0, 400,325.9259259259259"><g id="svgg"><path id="path0" d="M315.154 1.655 C 310.396 2.806,314.174 -0.746,258.804 54.640 C 149.617 163.859,90.588 223.403,89.557 225.361 C 87.116 230.001,87.060 235.660,89.408 240.593 C 90.630 243.159,147.448 300.613,151.259 303.136 C 156.468 306.585,164.095 306.528,169.160 303.004 C 171.301 301.514,387.129 85.920,389.080 83.322 C 392.797 78.375,392.899 70.494,389.320 64.877 C 387.068 61.342,329.892 4.537,327.187 3.147 C 323.556 1.281,319.021 0.718,315.154 1.655 " stroke="none" fill="#9580ff" fill-rule="evenodd"></path><path id="path1" d="M311.407 0.296 C 311.407 0.459,311.141 0.593,310.815 0.593 C 310.489 0.593,310.222 0.726,310.222 0.889 C 310.222 1.052,309.956 1.185,309.630 1.185 C 309.304 1.185,309.037 1.319,309.037 1.481 C 309.037 1.644,308.770 1.778,308.444 1.778 C 308.119 1.778,307.852 1.911,307.852 2.074 C 307.852 2.237,307.641 2.370,307.384 2.370 C 307.127 2.370,306.404 2.904,305.778 3.556 C 305.151 4.207,304.458 4.741,304.237 4.741 C 304.016 4.741,303.638 5.028,303.399 5.379 C 303.159 5.730,302.262 6.696,301.405 7.527 C 300.549 8.357,298.598 10.287,297.071 11.814 C 295.544 13.341,293.628 15.258,292.813 16.072 C 290.904 17.981,285.547 23.338,283.590 25.295 C 282.754 26.131,280.838 28.047,279.332 29.554 C 277.825 31.060,275.926 32.960,275.111 33.775 C 274.296 34.589,272.329 36.557,270.740 38.147 C 267.100 41.787,265.099 43.788,261.554 47.332 C 260.006 48.880,258.055 50.830,257.220 51.666 C 256.384 52.501,254.468 54.418,252.961 55.924 C 251.455 57.431,249.538 59.347,248.703 60.183 C 246.745 62.140,241.378 67.507,239.518 69.368 C 237.659 71.227,232.709 76.177,230.849 78.036 C 230.055 78.830,228.023 80.855,226.332 82.535 C 222.779 86.068,222.522 86.361,222.510 86.876 C 222.505 87.087,222.094 87.593,221.597 88.000 C 221.100 88.407,219.320 90.123,217.641 91.813 C 215.963 93.504,214.057 95.420,213.405 96.071 C 211.872 97.604,205.752 103.724,204.220 105.257 C 202.688 106.788,197.158 112.318,195.627 113.849 C 194.975 114.501,192.908 116.568,191.034 118.442 C 189.160 120.316,187.094 122.382,186.442 123.034 C 185.790 123.686,183.857 125.620,182.146 127.331 C 180.434 129.042,178.501 130.975,177.849 131.627 C 177.197 132.279,175.264 134.212,173.553 135.923 C 171.842 137.634,169.908 139.568,169.257 140.220 C 168.605 140.871,166.555 142.901,164.702 144.729 C 162.849 146.558,161.137 148.342,160.898 148.694 C 160.196 149.724,159.867 149.518,156.129 145.704 C 154.173 143.707,152.476 141.980,152.360 141.865 C 139.674 129.330,117.333 106.882,117.333 106.670 C 117.333 106.267,94.893 83.852,94.489 83.852 C 94.310 83.852,93.790 83.452,93.333 82.963 C 92.877 82.474,92.319 82.074,92.095 82.074 C 91.870 82.074,91.494 81.807,91.259 81.481 C 91.024 81.156,90.662 80.889,90.453 80.889 C 90.245 80.889,90.074 80.756,90.074 80.593 C 90.074 80.430,89.685 80.296,89.210 80.296 C 88.735 80.296,88.290 80.130,88.222 79.926 C 88.128 79.643,86.334 79.556,80.593 79.556 C 74.852 79.556,73.058 79.643,72.963 79.926 C 72.895 80.130,72.451 80.296,71.975 80.296 C 71.500 80.296,71.111 80.430,71.111 80.593 C 71.111 80.756,70.844 80.889,70.519 80.889 C 70.193 80.889,69.926 81.022,69.926 81.185 C 69.926 81.348,69.713 81.481,69.452 81.481 C 69.192 81.481,68.605 81.881,68.148 82.370 C 67.691 82.859,67.138 83.267,66.918 83.275 C 66.698 83.284,65.919 83.955,65.185 84.767 C 64.452 85.578,63.284 86.804,62.589 87.491 C 61.895 88.178,59.945 90.123,58.255 91.813 C 56.565 93.504,54.649 95.420,53.997 96.071 C 52.465 97.604,46.345 103.724,44.812 105.257 C 43.281 106.788,37.751 112.318,36.220 113.849 C 34.687 115.382,28.567 121.502,27.034 123.034 C 26.383 123.686,24.449 125.620,22.738 127.331 C 21.027 129.042,19.076 130.992,18.403 131.665 C 17.731 132.338,15.814 134.254,14.146 135.923 C 10.229 139.838,8.593 141.571,8.593 141.800 C 8.593 141.902,8.193 142.358,7.704 142.815 C 7.215 143.272,6.815 143.858,6.815 144.119 C 6.815 144.379,6.681 144.593,6.519 144.593 C 6.356 144.593,6.222 144.859,6.222 145.185 C 6.222 145.511,6.089 145.778,5.926 145.778 C 5.763 145.778,5.630 146.044,5.630 146.370 C 5.630 146.696,5.496 146.963,5.333 146.963 C 5.170 146.963,5.037 147.467,5.037 148.083 C 5.037 148.863,4.857 149.332,4.444 149.630 C 4.119 149.865,3.852 150.198,3.852 150.370 C 3.852 150.543,3.585 150.876,3.259 151.111 C 2.933 151.346,2.667 151.775,2.667 152.065 C 2.667 152.355,2.551 152.593,2.409 152.593 C 2.267 152.593,2.062 153.259,1.954 154.074 C 1.846 154.889,1.629 155.556,1.471 155.556 C 1.314 155.556,1.185 156.089,1.185 156.741 C 1.185 157.597,1.062 157.926,0.741 157.926 C 0.356 157.926,0.296 159.045,0.296 166.222 C 0.296 173.399,0.356 174.519,0.741 174.519 C 1.062 174.519,1.185 174.848,1.185 175.704 C 1.185 176.356,1.303 176.889,1.448 176.889 C 1.592 176.889,1.800 177.489,1.910 178.222 C 2.020 178.956,2.236 179.556,2.389 179.556 C 2.542 179.556,2.667 179.793,2.667 180.083 C 2.667 180.373,2.933 180.802,3.259 181.037 C 3.585 181.272,3.860 181.668,3.871 181.917 C 3.881 182.166,4.817 183.237,5.951 184.296 C 7.084 185.356,8.709 186.923,9.562 187.780 C 10.414 188.636,12.344 190.570,13.850 192.076 C 17.114 195.339,18.612 196.837,22.739 200.965 C 26.610 204.838,27.458 205.686,31.331 209.558 C 35.226 213.451,36.623 214.848,40.516 218.743 C 44.388 222.616,45.236 223.464,49.109 227.336 C 53.550 231.775,57.916 236.141,62.219 240.444 C 64.127 242.353,69.474 247.699,71.480 249.705 C 73.482 251.707,78.081 256.307,80.035 258.260 C 81.992 260.218,87.359 265.585,89.220 267.445 C 93.445 271.670,98.043 276.269,102.442 280.669 C 106.314 284.542,107.162 285.390,111.035 289.261 C 114.929 293.155,116.326 294.552,120.220 298.447 C 124.088 302.316,124.858 303.085,128.774 307.001 C 132.979 311.205,134.379 312.604,137.664 315.890 C 139.191 317.417,141.141 319.346,141.998 320.177 C 142.855 321.007,143.752 321.974,143.991 322.325 C 144.231 322.676,144.664 322.963,144.954 322.963 C 145.244 322.963,145.481 323.096,145.481 323.259 C 145.481 323.422,145.748 323.556,146.074 323.556 C 146.400 323.556,146.667 323.689,146.667 323.852 C 146.667 324.015,146.933 324.148,147.259 324.148 C 147.585 324.148,147.852 324.281,147.852 324.444 C 147.852 324.607,148.119 324.741,148.444 324.741 C 148.770 324.741,149.037 324.874,149.037 325.037 C 149.037 325.200,149.570 325.333,150.222 325.333 C 150.874 325.333,151.407 325.467,151.407 325.630 C 151.407 325.821,154.667 325.926,160.593 325.926 C 166.519 325.926,169.778 325.821,169.778 325.630 C 169.778 325.467,170.111 325.333,170.519 325.333 C 170.926 325.333,171.259 325.200,171.259 325.037 C 171.259 324.874,171.659 324.741,172.148 324.741 C 172.637 324.741,173.037 324.607,173.037 324.444 C 173.037 324.281,173.274 324.148,173.564 324.148 C 173.854 324.148,174.284 323.881,174.519 323.556 C 174.753 323.230,175.153 322.963,175.407 322.963 C 175.661 322.963,176.061 322.696,176.296 322.370 C 176.531 322.044,176.927 321.774,177.177 321.769 C 177.426 321.764,177.963 321.355,178.370 320.860 C 178.778 320.365,179.415 319.669,179.786 319.313 C 180.158 318.958,182.109 317.018,184.123 315.003 C 188.892 310.232,188.446 310.678,193.014 306.118 C 197.790 301.350,196.837 302.302,201.650 297.481 C 206.495 292.628,205.795 293.329,210.754 288.377 C 215.649 283.491,214.454 284.686,219.340 279.791 C 224.307 274.817,223.747 275.377,228.569 270.562 C 233.336 265.804,232.306 266.833,237.162 261.970 C 242.075 257.048,241.524 257.600,246.347 252.785 C 251.124 248.016,250.186 248.953,254.902 244.229 C 259.672 239.452,259.204 239.919,264.084 235.047 C 266.286 232.849,268.221 230.917,268.384 230.754 C 268.547 230.591,270.480 228.658,272.680 226.458 C 274.880 224.258,276.813 222.325,276.976 222.162 C 277.139 221.999,279.071 220.064,281.269 217.862 C 286.133 212.990,285.573 213.550,290.498 208.633 C 295.356 203.784,294.250 204.889,299.047 200.084 C 303.918 195.205,303.434 195.690,308.317 190.815 C 313.115 186.025,311.935 187.205,316.822 182.310 C 321.780 177.343,321.146 177.978,326.010 173.121 C 330.825 168.314,329.796 169.344,334.603 164.529 C 339.467 159.656,338.916 160.208,343.788 155.344 C 348.613 150.526,347.660 151.479,352.424 146.707 C 354.598 144.529,356.644 142.481,356.970 142.155 C 357.740 141.384,364.792 134.333,365.562 133.562 C 365.888 133.236,367.957 131.171,370.158 128.973 C 374.973 124.166,373.944 125.196,378.751 120.381 C 383.615 115.509,383.055 116.069,387.980 111.152 C 390.206 108.929,392.121 107.013,392.236 106.894 C 392.351 106.774,393.144 106.016,394.000 105.209 C 394.856 104.402,395.556 103.563,395.556 103.344 C 395.556 103.125,395.822 102.753,396.148 102.519 C 396.474 102.284,396.741 101.884,396.741 101.630 C 396.741 101.376,397.007 100.976,397.333 100.741 C 397.681 100.490,397.926 99.974,397.926 99.490 C 397.926 99.037,398.059 98.667,398.222 98.667 C 398.385 98.667,398.519 98.400,398.519 98.074 C 398.519 97.748,398.652 97.481,398.815 97.481 C 398.989 97.481,399.111 96.444,399.111 94.963 C 399.111 93.481,399.233 92.444,399.407 92.444 C 399.595 92.444,399.704 90.321,399.704 86.667 C 399.704 83.012,399.595 80.889,399.407 80.889 C 399.233 80.889,399.111 79.852,399.111 78.370 C 399.111 76.889,398.989 75.852,398.815 75.852 C 398.652 75.852,398.519 75.585,398.519 75.259 C 398.519 74.933,398.385 74.667,398.222 74.667 C 398.059 74.667,397.926 74.267,397.926 73.778 C 397.926 73.289,397.793 72.889,397.630 72.889 C 397.467 72.889,397.333 72.652,397.333 72.362 C 397.333 72.072,397.067 71.642,396.741 71.407 C 396.415 71.172,396.148 70.863,396.148 70.720 C 396.148 70.577,395.748 70.086,395.259 69.630 C 394.770 69.173,394.370 68.586,394.370 68.326 C 394.370 68.065,394.237 67.852,394.074 67.852 C 393.911 67.852,393.778 67.585,393.778 67.259 C 393.778 66.933,393.644 66.667,393.481 66.667 C 393.319 66.667,393.185 66.400,393.185 66.074 C 393.185 65.748,393.052 65.481,392.889 65.481 C 392.726 65.481,392.593 65.215,392.593 64.889 C 392.593 64.563,392.459 64.296,392.296 64.296 C 392.133 64.296,392.000 64.036,392.000 63.717 C 392.000 63.399,391.667 62.805,391.259 62.397 C 390.852 61.990,390.519 61.583,390.519 61.492 C 390.519 61.372,364.220 34.903,347.320 18.014 C 339.067 9.766,333.270 4.148,333.012 4.148 C 332.831 4.148,332.309 3.748,331.852 3.259 C 331.395 2.770,330.808 2.370,330.548 2.370 C 330.287 2.370,330.074 2.237,330.074 2.074 C 330.074 1.911,329.874 1.778,329.630 1.778 C 329.385 1.778,329.185 1.644,329.185 1.481 C 329.185 1.319,328.919 1.185,328.593 1.185 C 328.267 1.185,328.000 1.052,328.000 0.889 C 328.000 0.726,327.733 0.593,327.407 0.593 C 327.081 0.593,326.815 0.459,326.815 0.296 C 326.815 0.106,324.049 0.000,319.111 0.000 C 314.173 0.000,311.407 0.106,311.407 0.296 M323.039 1.620 C 327.899 2.650,326.271 1.190,358.717 33.606 C 380.322 55.192,388.423 63.470,389.320 64.877 C 392.899 70.494,392.797 78.375,389.080 83.322 C 387.129 85.920,171.301 301.514,169.160 303.004 C 164.095 306.528,156.468 306.585,151.259 303.136 C 147.448 300.613,90.630 243.159,89.408 240.593 C 87.060 235.660,87.116 230.001,89.557 225.361 C 91.455 221.756,307.822 4.942,311.302 3.159 C 315.021 1.254,318.907 0.744,323.039 1.620 " stroke="none" fill="#282a35" fill-rule="evenodd"></path></g></svg>